<svg width="512" height="512" viewBox="0 0 512 512" fill="none" xmlns="http://www.w3.org/2000/svg">
<path fill-rule="evenodd" clip-rule="evenodd" d="M97.4121 440.649C95.6547 438.996 93.9167 437.311 92.1989 435.593C1.51434 344.909 1.51436 197.88 92.1989 107.196C182.883 16.511 471.839 10.4443 471.839 10.4443C471.839 10.4443 511.281 344.909 420.597 435.593C340.057 516.133 215.075 525.143 124.592 462.624L197.5 373.153L314.05 347.99L218.911 338.479L279.373 276.917L348.197 261.84L293.775 245.723L348.197 147.547L270.787 234.375L240.894 192.192L251.417 261.84L197.5 322.622L172.507 245.722V347.99L97.4121 440.649Z" fill="#5FBD58"/>
</svg>
