<svg width="512" height="512" viewBox="0 0 512 512" fill="none" xmlns="http://www.w3.org/2000/svg">
<path d="M255.606 331.028C219.12 331.028 188.686 305.199 181.461 270.881H60.083C68.6625 370.675 152.381 448.974 254.342 448.974C356.302 448.974 440.111 370.675 448.6 270.881H329.751C322.526 305.29 292.091 331.028 255.606 331.028Z" fill="white"/>
<path d="M298.955 443.917C379.874 424.952 441.375 355.683 448.6 270.881H400.735C395.949 347.826 355.58 413.031 298.955 443.917Z" fill="#DFDFDF"/>
<path d="M300.31 255.258C300.219 255.258 300.219 255.258 300.31 255.258C300.219 249.749 299.226 244.511 297.42 239.634C291.098 222.655 274.752 210.644 255.606 210.644C236.46 210.644 220.114 222.746 213.792 239.634C211.986 244.511 210.992 249.749 210.992 255.258H211.083C211.083 260.767 212.076 266.005 213.882 270.881C220.204 287.86 236.55 299.871 255.696 299.871C274.842 299.871 291.188 287.769 297.51 270.881C299.316 266.095 300.31 260.767 300.31 255.258Z" fill="white"/>
<path d="M255.696 179.577C292.182 179.577 322.616 205.406 329.841 239.724H451.219C442.64 139.84 358.921 61.541 256.87 61.541C154.819 61.541 71.1912 139.84 62.6117 239.634H181.551C188.776 205.316 219.211 179.577 255.696 179.577Z" fill="#FF1C1C"/>
<path d="M400.735 239.634H451.129C443.723 153.387 380.145 83.1253 297.149 65.6953C354.767 96.13 395.859 161.967 400.735 239.634Z" fill="#DF1818"/>
<path d="M256.87 61.5411C358.921 61.5411 442.639 139.841 451.129 239.634H329.751C322.526 205.316 292.091 179.487 255.606 179.487C219.12 179.487 188.686 205.316 181.461 239.634H62.6117C71.1912 139.841 154.909 61.5411 256.87 61.5411ZM297.42 239.634C299.226 244.511 300.219 249.749 300.219 255.258H300.31C300.31 260.767 299.316 266.005 297.51 270.881C291.188 287.86 274.842 299.871 255.696 299.871C236.55 299.871 220.204 287.77 213.882 270.881C212.076 266.005 211.083 260.767 211.083 255.258H210.992C210.992 249.749 211.986 244.511 213.792 239.634C220.114 222.656 236.46 210.644 255.606 210.644C274.752 210.644 291.098 222.746 297.42 239.634ZM254.342 449.065C152.29 449.065 68.5722 370.765 60.083 270.972H181.461C188.686 305.29 219.12 331.119 255.606 331.119C292.091 331.119 322.526 305.29 329.751 270.972H448.69C440.111 370.675 356.393 449.065 254.342 449.065ZM255.606 24.333C128.087 24.333 24.6812 127.739 24.6812 255.258C24.6812 382.777 128.087 486.182 255.606 486.182C383.125 486.182 486.621 382.867 486.621 255.258C486.621 127.649 383.215 24.333 255.606 24.333Z" fill="black"/>
</svg>
