<svg width="42" height="42" viewBox="0 0 42 42" fill="none" xmlns="http://www.w3.org/2000/svg">
<path d="M30.8239 27.1509C33.3656 23.6821 34.504 19.3814 34.0114 15.1092C33.5187 10.837 31.4314 6.90836 28.1669 4.10928C24.9025 1.31019 20.7017 -0.15292 16.4049 0.0126645C12.1082 0.178249 8.03242 1.96031 4.993 5.00234C1.95358 8.04436 0.174683 12.122 0.0121967 16.4194C-0.150289 20.7169 1.31562 24.9173 4.11665 28.1802C6.91768 31.4431 10.8473 33.5279 15.1192 34.0176C19.3912 34.5072 23.6905 33.3656 27.157 30.8211H27.1543C27.2313 30.9261 27.3171 31.0267 27.4116 31.123L37.5174 41.2303C38.0096 41.7229 38.6773 41.9998 39.3736 42C40.0699 42.0002 40.7378 41.7238 41.2304 41.2316C41.7229 40.7393 41.9998 40.0715 42 39.3751C42.0002 38.6787 41.7239 38.0107 41.2317 37.5181L31.1258 27.4108C31.032 27.3158 30.9311 27.2306 30.8239 27.1509ZM31.5012 17.0594C31.5012 18.9556 31.1278 20.8331 30.4022 22.585C29.6767 24.3368 28.6133 25.9285 27.2727 27.2693C25.9321 28.6101 24.3406 29.6737 22.589 30.3993C20.8374 31.1249 18.9601 31.4984 17.0642 31.4984C15.1683 31.4984 13.291 31.1249 11.5394 30.3993C9.78786 29.6737 8.19634 28.6101 6.85575 27.2693C5.51515 25.9285 4.45173 24.3368 3.72621 22.585C3.00068 20.8331 2.62726 18.9556 2.62726 17.0594C2.62726 13.2299 4.14829 9.55733 6.85575 6.84949C9.5632 4.14165 13.2353 2.62041 17.0642 2.62041C20.8931 2.62041 24.5652 4.14165 27.2727 6.84949C29.9801 9.55733 31.5012 13.2299 31.5012 17.0594Z" fill="black"/>
</svg>
